<svg viewBox="0 0 2929 962" xmlns="http://www.w3.org/2000/svg" xmlns:xlink="http://www.w3.org/1999/xlink" xml:space="preserve" role="img" aria-labelledby="stack-title stack-desc" id="stack-of-agents-svg"><title id="stack-title">Diagram showing the three-layer stack: Agent, Provider, and Model</title><desc id="stack-desc">A visual diagram illustrating the three-layer architecture used in the tutorial: the Agent layer (Claude Code) on the left communicates with the Provider layer (OpenRouter) in the middle, which routes requests to the Model layer (e.g. Kimi K2) on the right.</desc><defs><clipPath id="clip0"><rect x="2803" y="557" width="833" height="550"/></clipPath><clipPath id="clip1"><rect x="2803" y="557" width="833" height="550"/></clipPath></defs><g transform="translate(-710 -385)"><g><text fill="#0AC8FF" fill-opacity="1" font-family="Aptos,Aptos_MSFontService,sans-serif" font-style="normal" font-variant="normal" font-weight="400" font-stretch="normal" font-size="73" text-anchor="start" direction="ltr" writing-mode="lr-tb" unicode-bidi="normal" text-decoration="none" transform="matrix(1 0 0 1 1020.2 920)">Agent</text><text fill="#0AC8FF" fill-opacity="1" font-family="Aptos,Aptos_MSFontService,sans-serif" font-style="normal" font-variant="normal" font-weight="400" font-stretch="normal" font-size="73" text-anchor="start" direction="ltr" writing-mode="lr-tb" unicode-bidi="normal" text-decoration="none" transform="matrix(1 0 0 1 2072.6 920)">Provider</text><path d="M2.19647e-05-10.3125 117.878-10.3122 117.878 10.3128-2.19647e-05 10.3125ZM107.565-30.9373 169.44 0.000360892 107.565 30.9377Z" fill="#00326E" fill-rule="nonzero" fill-opacity="1" transform="matrix(-1 0 0 1 1722.94 892.5)"/><g><g><g><path d="M697.375 116.229 99.625 116.229C81.3073 116.284 66.4714 131.12 66.4167 149.438L66.4167 548.062C66.476 566.378 81.3091 581.211 99.625 581.27L340.385 581.27 340.385 664.291 249.063 664.291 249.063 680.896 547.938 680.896 547.938 664.291 456.615 664.291 456.615 581.27 697.375 581.27C715.691 581.211 730.524 566.378 730.583 548.062L730.583 149.438C730.529 131.12 715.693 116.284 697.375 116.229ZM440.01 664.325 356.99 664.325 356.99 581.304 440.01 581.304ZM713.979 548.095C713.979 557.266 706.546 564.699 697.375 564.699L99.625 564.699C90.4545 564.699 83.0209 557.266 83.0209 548.095L83.0209 149.438C83.0209 140.267 90.4545 132.833 99.625 132.833L697.375 132.833C706.546 132.833 713.979 140.267 713.979 149.438Z" fill="#00326E" fill-rule="nonzero" fill-opacity="1" transform="matrix(1 0 0 1.00125 713 549)"/><path d="M124.531 157.74 107.927 157.74 107.927 539.752 689.073 539.752 689.073 157.74 124.531 157.74ZM672.469 523.148 124.531 523.148 124.531 174.344 672.469 174.344Z" fill="#00326E" fill-rule="nonzero" fill-opacity="1" transform="matrix(1 0 0 1.00125 713 549)"/></g></g></g><g><g><g><path d="M182.096 654.772C191.301 655.273 218.159 655.5 218.159 655.5L710.164 655.5C770.72 655.26 819.617 605.975 819.377 545.419 819.14 485.556 770.933 436.947 711.074 436.213L701.97 436.213C701.886 392.096 680.53 350.729 644.614 325.11 608.226 299.65 561.824 293.215 519.881 307.812 478.697 227.29 380.034 195.4 299.512 236.584 245.026 264.451 210.626 320.375 210.324 381.574L210.324 383.395C203.18 382.226 195.955 381.637 188.718 381.635 113.156 381.547 51.83 442.731 51.7422 518.292 51.7188 538.393 56.1249 558.252 64.6469 576.457 86.7636 621.871 131.669 651.815 182.096 654.772ZM93.7647 447.162C116.48 417.659 151.48 400.215 188.712 399.841 194.964 399.847 201.205 400.355 207.376 401.361L228.525 404.82 228.525 381.57C229.02 301.172 294.596 236.399 374.994 236.893 429.311 237.227 478.925 267.774 503.679 316.125L510.909 330.208 525.86 325.007C587.294 303.043 654.901 335.039 676.866 396.473 681.425 409.226 683.757 422.669 683.761 436.213L683.761 454.422 711.074 454.422C761.569 455.165 801.902 496.701 801.159 547.197 800.426 596.999 759.971 637.055 710.164 637.292L199.31 637.292 183.085 636.59C117.818 633.776 67.1899 578.585 70.0039 513.318 71.0365 489.368 79.3219 466.297 93.762 447.162Z" fill="#00326E" fill-rule="nonzero" fill-opacity="1" transform="matrix(1 0 0 1 1766 386)"/></g></g></g><path d="M2.19647e-05-10.3125 117.878-10.3122 117.878 10.3128-2.19647e-05 10.3125ZM107.565-30.9373 169.44 0.000360892 107.565 30.9377Z" fill="#00326E" fill-rule="nonzero" fill-opacity="1" transform="matrix(-1 0 0 1 2829.94 892.5)"/><g clip-path="url(#clip0)"><g clip-path="url(#clip1)"><g><path d="M727.631 666.995 485.088 666.995 485.088 632.346 424.452 632.346 424.452 554.386 658.333 554.386C677.469 554.386 692.982 538.872 692.982 519.737L692.982 433.114C692.95 423.125 688.582 413.643 681.011 407.127 688.582 400.611 692.95 391.129 692.982 381.14L692.982 294.517C692.95 284.529 688.582 275.046 681.011 268.531 688.582 262.015 692.95 252.532 692.982 242.544L692.982 155.921C692.982 136.785 677.469 121.272 658.333 121.272L173.246 121.272C154.11 121.272 138.596 136.785 138.596 155.921L138.596 242.544C138.629 252.532 142.997 262.015 150.568 268.531 142.997 275.046 138.629 284.529 138.596 294.517L138.596 381.14C138.629 391.129 142.997 400.611 150.568 407.127 142.997 413.643 138.629 423.125 138.596 433.114L138.596 519.737C138.596 538.872 154.11 554.386 173.246 554.386L407.127 554.386 407.127 632.346 346.491 632.346 346.491 666.995 103.947 666.995 103.947 684.32 346.491 684.32 346.491 718.969 485.088 718.969 485.088 684.32 727.631 684.32ZM155.921 242.544 155.921 155.921C155.921 146.353 163.677 138.596 173.246 138.596L658.333 138.596C667.901 138.596 675.658 146.353 675.658 155.921L675.658 242.544C675.658 252.112 667.901 259.868 658.333 259.868L173.246 259.868C163.677 259.868 155.921 252.112 155.921 242.544ZM155.921 381.14 155.921 294.517C155.921 284.949 163.677 277.193 173.246 277.193L658.333 277.193C667.901 277.193 675.658 284.949 675.658 294.517L675.658 381.14C675.658 390.709 667.901 398.465 658.333 398.465L173.246 398.465C163.677 398.465 155.921 390.709 155.921 381.14ZM155.921 519.737 155.921 433.114C155.921 423.546 163.677 415.789 173.246 415.789L658.333 415.789C667.901 415.789 675.658 423.546 675.658 433.114L675.658 519.737C675.658 529.305 667.901 537.061 658.333 537.061L173.246 537.061C163.677 537.061 155.921 529.305 155.921 519.737ZM467.763 701.645 363.816 701.645 363.816 649.671 467.763 649.671Z" fill="#00326E" fill-rule="nonzero" fill-opacity="1" transform="matrix(1.00051 0 0 1 2804 558)"/><path d="M242.544 199.232C242.544 208.8 234.787 216.557 225.219 216.557 215.651 216.557 207.895 208.8 207.895 199.232 207.895 189.664 215.651 181.908 225.219 181.908 234.787 181.908 242.544 189.664 242.544 199.232Z" fill="#00326E" fill-rule="nonzero" fill-opacity="1" transform="matrix(1.00051 0 0 1 2804 558)"/><path d="M329.167 199.232C329.167 208.8 321.41 216.557 311.842 216.557 302.274 216.557 294.517 208.8 294.517 199.232 294.517 189.664 302.274 181.908 311.842 181.908 321.41 181.908 329.167 189.664 329.167 199.232Z" fill="#00326E" fill-rule="nonzero" fill-opacity="1" transform="matrix(1.00051 0 0 1 2804 558)"/><path d="M415.789 199.232C415.789 208.8 408.033 216.557 398.465 216.557 388.897 216.557 381.14 208.8 381.14 199.232 381.14 189.664 388.897 181.908 398.465 181.908 408.033 181.908 415.789 189.664 415.789 199.232Z" fill="#00326E" fill-rule="nonzero" fill-opacity="1" transform="matrix(1.00051 0 0 1 2804 558)"/><path d="M242.544 337.829C242.544 347.397 234.787 355.153 225.219 355.153 215.651 355.153 207.895 347.397 207.895 337.829 207.895 328.261 215.651 320.504 225.219 320.504 234.787 320.504 242.544 328.261 242.544 337.829Z" fill="#00326E" fill-rule="nonzero" fill-opacity="1" transform="matrix(1.00051 0 0 1 2804 558)"/><path d="M329.167 337.829C329.167 347.397 321.41 355.153 311.842 355.153 302.274 355.153 294.517 347.397 294.517 337.829 294.517 328.261 302.274 320.504 311.842 320.504 321.41 320.504 329.167 328.261 329.167 337.829Z" fill="#00326E" fill-rule="nonzero" fill-opacity="1" transform="matrix(1.00051 0 0 1 2804 558)"/><path d="M415.789 337.829C415.789 347.397 408.033 355.153 398.465 355.153 388.897 355.153 381.14 347.397 381.14 337.829 381.14 328.261 388.897 320.504 398.465 320.504 408.033 320.504 415.789 328.261 415.789 337.829Z" fill="#00326E" fill-rule="nonzero" fill-opacity="1" transform="matrix(1.00051 0 0 1 2804 558)"/><path d="M242.544 476.425C242.544 485.993 234.787 493.75 225.219 493.75 215.651 493.75 207.895 485.993 207.895 476.425 207.895 466.857 215.651 459.101 225.219 459.101 234.787 459.101 242.544 466.857 242.544 476.425Z" fill="#00326E" fill-rule="nonzero" fill-opacity="1" transform="matrix(1.00051 0 0 1 2804 558)"/><path d="M329.167 476.425C329.167 485.993 321.41 493.75 311.842 493.75 302.274 493.75 294.517 485.993 294.517 476.425 294.517 466.857 302.274 459.101 311.842 459.101 321.41 459.101 329.167 466.857 329.167 476.425Z" fill="#00326E" fill-rule="nonzero" fill-opacity="1" transform="matrix(1.00051 0 0 1 2804 558)"/><path d="M415.789 476.425C415.789 485.993 408.033 493.75 398.465 493.75 388.897 493.75 381.14 485.993 381.14 476.425 381.14 466.857 388.897 459.101 398.465 459.101 408.033 459.101 415.789 466.857 415.789 476.425Z" fill="#00326E" fill-rule="nonzero" fill-opacity="1" transform="matrix(1.00051 0 0 1 2804 558)"/></g></g></g><rect x="2976" y="841" width="487" height="104" fill="#FFFFFF" fill-opacity="1"/><text fill="#0AC8FF" fill-opacity="1" font-family="Aptos,Aptos_MSFontService,sans-serif" font-style="normal" font-variant="normal" font-weight="400" font-stretch="normal" font-size="73" text-anchor="start" direction="ltr" writing-mode="lr-tb" unicode-bidi="normal" text-decoration="none" transform="matrix(1 0 0 1 3121.09 925)">Model</text></g></g></svg>